<svg width="256" height="256" viewBox="0 0 256 256" fill="none" xmlns="http://www.w3.org/2000/svg">
  <rect width="256" height="256" fill="#071311"/>
  <circle cx="128" cy="128" r="86" fill="#22c55e"/>
  <path d="M77 181L88 145C80 132 77 117 81 102C88 74 116 57 145 64C173 72 190 101 182 129C175 158 146 175 118 167C109 165 101 161 94 155L77 181Z" fill="#071311"/>
  <path d="M99 143C109 154 126 159 141 154C156 149 166 136 168 121C171 105 164 90 151 81C139 72 122 71 109 79C95 87 88 103 91 119C92 127 96 136 99 143Z" fill="#22c55e"/>
  <path d="M113 96C110 96 106 101 106 105C106 118 123 143 141 148C146 149 153 145 155 141C156 139 156 137 154 136L143 130C141 129 139 130 137 132L134 136C126 132 120 126 116 118L120 115C122 113 122 111 121 109L116 98C115 97 114 96 113 96Z" fill="#071311"/>
</svg>
