<svg width="256" height="256" viewBox="0 0 256 256" fill="none" xmlns="http://www.w3.org/2000/svg">
  <rect width="256" height="256" rx="56" fill="#0B1017"/>
  <path d="M204 61L45 122C34 126 34 141 46 145L85 158L100 204C104 216 119 219 127 209L149 182L187 211C198 219 213 213 216 199L235 78C238 64 225 53 204 61Z" fill="#15B8A6"/>
  <path d="M91 154L193 85L113 170L109 201L91 154Z" fill="#E8FFFB"/>
  <circle cx="189" cy="188" r="27" fill="#25D366"/>
  <path d="M177 177C180 170 188 168 195 172C203 176 207 185 204 193C201 201 192 205 184 202L174 206L178 196C174 190 174 183 177 177Z" fill="#FFFFFF"/>
</svg>
