<svg width="256" height="256" viewBox="0 0 256 256" fill="none" xmlns="http://www.w3.org/2000/svg">
  <rect width="256" height="256" fill="#071311"/>
  <circle cx="128" cy="128" r="86" fill="#20d67b"/>
  <path d="M72 185L84 148C76 134 73 118 78 101C86 72 116 55 145 63C174 71 191 101 183 130C175 159 145 176 116 168C108 166 100 162 93 157L72 185Z" fill="#071311"/>
  <path d="M98 143C109 155 126 160 142 154C157 149 168 135 170 119C172 103 165 88 152 79C139 70 122 69 108 78C94 87 87 103 90 120C92 129 95 137 98 143Z" fill="#20d67b"/>
  <path d="M113 96C110 96 106 101 106 105C106 119 123 144 142 149C147 150 154 146 156 141C157 139 156 137 154 136L143 130C141 129 139 130 137 132L134 136C126 132 120 126 116 118L120 115C122 113 122 111 121 109L116 98C115 97 114 96 113 96Z" fill="#071311"/>
  <circle cx="181" cy="75" r="22" fill="#22d3ee"/>
  <path d="M171 75H191M181 65V85" stroke="#071311" stroke-width="9" stroke-linecap="round"/>
</svg>
